<svg xmlns="http://www.w3.org/2000/svg" xmlns:xlink="http://www.w3.org/1999/xlink" width="105" zoomAndPan="magnify" viewBox="0 0 78.75 52.499999" height="70" preserveAspectRatio="xMidYMid meet" version="1.0"><defs><g/><clipPath id="0eeef299db"><path d="M 0.246094 0 L 78.253906 0 L 78.253906 52.003906 L 0.246094 52.003906 Z M 0.246094 0 " clip-rule="nonzero"/></clipPath></defs><g clip-path="url(#0eeef299db)"><path fill="#ffffff" d="M 0.246094 0 L 78.253906 0 L 78.253906 52.003906 L 0.246094 52.003906 Z M 0.246094 0 " fill-opacity="1" fill-rule="nonzero"/><path fill="#ffffff" d="M 0.246094 0 L 78.253906 0 L 78.253906 52.003906 L 0.246094 52.003906 Z M 0.246094 0 " fill-opacity="1" fill-rule="nonzero"/></g><g fill="#3e4044" fill-opacity="1"><g transform="translate(8.354283, 18.942075)"><g><path d="M 2.578125 -3.574219 L 2.578125 -6.472656 C 1.199219 -6.066406 0.429688 -4.980469 0.429688 -3.269531 C 0.429688 -1.035156 1.511719 0.113281 3.6875 0.113281 C 4.222656 0.113281 4.6875 0.0390625 5.09375 -0.105469 L 4.535156 -1.511719 C 4.390625 -1.472656 4.238281 -1.453125 4.078125 -1.453125 C 3.082031 -1.453125 2.578125 -2.015625 2.578125 -2.964844 Z M 3.992188 -6.65625 C 3.886719 -6.65625 3.785156 -6.65625 3.679688 -6.644531 L 3.679688 -5.046875 C 3.800781 -5.078125 3.9375 -5.085938 4.078125 -5.085938 C 4.742188 -5.085938 5.3125 -4.734375 5.3125 -4.171875 L 7.320312 -4.171875 C 7.320312 -5.816406 5.828125 -6.65625 3.992188 -6.65625 Z M 6.238281 0 L 7.320312 0 L 7.320312 -3.652344 L 3.832031 -3.652344 L 3.832031 -2.320312 L 5.3125 -2.320312 Z M 6.238281 0 "/></g></g></g><g fill="#3e4044" fill-opacity="1"><g transform="translate(16.273256, 18.942075)"><g><path d="M 2.804688 0 L 2.804688 -6.539062 L 0.703125 -6.539062 L 0.703125 0 Z M 3.90625 0 L 6.425781 0 L 6.425781 -1.570312 L 3.90625 -1.570312 Z M 3.90625 -6.539062 L 3.90625 -4.972656 L 6.359375 -4.972656 L 6.359375 -6.539062 Z M 3.90625 -2.566406 L 5.847656 -2.566406 L 5.847656 -4.070312 L 3.90625 -4.070312 Z M 3.90625 -2.566406 "/></g></g></g><g fill="#3e4044" fill-opacity="1"><g transform="translate(23.137, 18.942075)"><g><path d="M 4.773438 -4.449219 C 4.773438 -4.097656 4.507812 -3.839844 4.183594 -3.839844 L 3.585938 -3.839844 L 3.585938 -2.386719 L 4.742188 0 L 7.101562 0 L 5.648438 -2.738281 C 6.492188 -3.050781 6.910156 -3.773438 6.910156 -4.535156 C 6.910156 -5.597656 6.160156 -6.539062 4.707031 -6.539062 L 3.585938 -6.539062 L 3.585938 -5.046875 L 4.183594 -5.046875 C 4.507812 -5.046875 4.773438 -4.800781 4.773438 -4.449219 Z M 2.480469 0 L 2.480469 -6.539062 L 0.703125 -6.539062 L 0.703125 0 Z M 2.480469 0 "/></g></g></g><g fill="#3e4044" fill-opacity="1"><g transform="translate(30.533113, 18.942075)"><g><path d="M 4.183594 -6.539062 L 2.480469 -6.539062 L 0.09375 0 L 2.242188 0 Z M 5.125 -5.988281 L 4.222656 -2.917969 L 4.375 -2.386719 L 4.058594 -2.386719 L 3.621094 -0.921875 L 4.808594 -0.921875 L 5.085938 0 L 7.3125 0 Z M 5.125 -5.988281 "/></g></g></g><g fill="#3e4044" fill-opacity="1"><g transform="translate(37.929226, 18.942075)"><g><path d="M 2.804688 0 L 2.804688 -6.539062 L 0.703125 -6.539062 L 0.703125 0 Z M 3.90625 0 L 6.160156 0 L 6.160156 -1.671875 L 3.90625 -1.671875 Z M 3.90625 0 "/></g></g></g><g fill="#3e4044" fill-opacity="1"><g transform="translate(44.27011, 18.942075)"><g><path d="M 2.804688 -6.539062 L 0.703125 -6.539062 L 0.703125 0 L 2.804688 0 Z M 3.90625 -4.933594 C 4.542969 -4.792969 4.820312 -4.304688 4.820312 -3.554688 L 4.820312 -2.984375 C 4.820312 -2.234375 4.542969 -1.75 3.90625 -1.605469 L 3.90625 -0.0078125 C 5.902344 -0.125 6.96875 -1.160156 6.96875 -3.269531 C 6.96875 -5.378906 5.902344 -6.417969 3.90625 -6.53125 Z M 3.90625 -4.933594 "/></g></g></g><g fill="#3e4044" fill-opacity="1"><g transform="translate(51.666223, 18.942075)"><g><path d="M 2.898438 -6.539062 L 0.796875 -6.539062 L 0.796875 0 L 2.898438 0 Z M 2.898438 -6.539062 "/></g></g></g><g fill="#3e4044" fill-opacity="1"><g transform="translate(55.364279, 18.942075)"><g><path d="M 7.214844 -6.539062 L 5.285156 -6.539062 L 5.285156 -3.316406 L 3.734375 -5.132812 L 3.734375 -1.902344 L 5.378906 0 L 7.214844 0 Z M 2.632812 -3.175781 L 2.632812 -6.425781 L 2.539062 -6.539062 L 0.703125 -6.539062 L 0.703125 0 L 2.632812 0 Z M 2.632812 -3.175781 "/></g></g></g><g fill="#3e4044" fill-opacity="1"><g transform="translate(63.283251, 18.942075)"><g><path d="M 2.804688 0 L 2.804688 -6.539062 L 0.703125 -6.539062 L 0.703125 0 Z M 3.90625 0 L 6.425781 0 L 6.425781 -1.570312 L 3.90625 -1.570312 Z M 3.90625 -6.539062 L 3.90625 -4.972656 L 6.359375 -4.972656 L 6.359375 -6.539062 Z M 3.90625 -2.566406 L 5.847656 -2.566406 L 5.847656 -4.070312 L 3.90625 -4.070312 Z M 3.90625 -2.566406 "/></g></g></g><g fill="#3e4044" fill-opacity="1"><g transform="translate(14.690397, 32.184094)"><g><path d="M 4.183594 -6.539062 L 2.480469 -6.539062 L 0.09375 0 L 2.242188 0 Z M 5.125 -5.988281 L 4.222656 -2.917969 L 4.375 -2.386719 L 4.058594 -2.386719 L 3.621094 -0.921875 L 4.808594 -0.921875 L 5.085938 0 L 7.3125 0 Z M 5.125 -5.988281 "/></g></g></g><g fill="#3e4044" fill-opacity="1"><g transform="translate(22.08651, 32.184094)"><g><path d="M 2.804688 -6.539062 L 0.703125 -6.539062 L 0.703125 0 L 2.804688 0 Z M 3.90625 -4.933594 C 4.542969 -4.792969 4.820312 -4.304688 4.820312 -3.554688 L 4.820312 -2.984375 C 4.820312 -2.234375 4.542969 -1.75 3.90625 -1.605469 L 3.90625 -0.0078125 C 5.902344 -0.125 6.96875 -1.160156 6.96875 -3.269531 C 6.96875 -5.378906 5.902344 -6.417969 3.90625 -6.53125 Z M 3.90625 -4.933594 "/></g></g></g><g fill="#3e4044" fill-opacity="1"><g transform="translate(29.482623, 32.184094)"><g><path d="M 4.773438 -4.449219 C 4.773438 -4.097656 4.507812 -3.839844 4.183594 -3.839844 L 3.585938 -3.839844 L 3.585938 -2.386719 L 4.742188 0 L 7.101562 0 L 5.648438 -2.738281 C 6.492188 -3.050781 6.910156 -3.773438 6.910156 -4.535156 C 6.910156 -5.597656 6.160156 -6.539062 4.707031 -6.539062 L 3.585938 -6.539062 L 3.585938 -5.046875 L 4.183594 -5.046875 C 4.507812 -5.046875 4.773438 -4.800781 4.773438 -4.449219 Z M 2.480469 0 L 2.480469 -6.539062 L 0.703125 -6.539062 L 0.703125 0 Z M 2.480469 0 "/></g></g></g><g fill="#3e4044" fill-opacity="1"><g transform="translate(36.878737, 32.184094)"><g><path d="M 2.898438 -6.539062 L 0.796875 -6.539062 L 0.796875 0 L 2.898438 0 Z M 2.898438 -6.539062 "/></g></g></g><g fill="#3e4044" fill-opacity="1"><g transform="translate(40.576793, 32.184094)"><g><path d="M 4.183594 -6.539062 L 2.480469 -6.539062 L 0.09375 0 L 2.242188 0 Z M 5.125 -5.988281 L 4.222656 -2.917969 L 4.375 -2.386719 L 4.058594 -2.386719 L 3.621094 -0.921875 L 4.808594 -0.921875 L 5.085938 0 L 7.3125 0 Z M 5.125 -5.988281 "/></g></g></g><g fill="#3e4044" fill-opacity="1"><g transform="translate(47.972906, 32.184094)"><g><path d="M 7.214844 -6.539062 L 5.285156 -6.539062 L 5.285156 -3.316406 L 3.734375 -5.132812 L 3.734375 -1.902344 L 5.378906 0 L 7.214844 0 Z M 2.632812 -3.175781 L 2.632812 -6.425781 L 2.539062 -6.539062 L 0.703125 -6.539062 L 0.703125 0 L 2.632812 0 Z M 2.632812 -3.175781 "/></g></g></g><g fill="#3e4044" fill-opacity="1"><g transform="translate(55.891881, 32.184094)"><g><path d="M 2.578125 -0.0664062 L 2.578125 -6.472656 C 1.199219 -6.074219 0.429688 -4.992188 0.429688 -3.269531 C 0.429688 -1.550781 1.199219 -0.464844 2.578125 -0.0664062 Z M 3.679688 -5.066406 C 3.765625 -5.078125 3.859375 -5.085938 3.953125 -5.085938 C 4.878906 -5.085938 5.34375 -4.46875 5.34375 -3.574219 L 5.34375 -2.964844 C 5.34375 -2.074219 4.878906 -1.453125 3.953125 -1.453125 C 3.859375 -1.453125 3.765625 -1.464844 3.679688 -1.472656 L 3.679688 0.105469 C 3.765625 0.113281 3.859375 0.113281 3.953125 0.113281 C 6.1875 0.113281 7.492188 -1.035156 7.492188 -3.269531 C 7.492188 -5.503906 6.1875 -6.65625 3.953125 -6.65625 L 3.679688 -6.65625 Z M 3.679688 -5.066406 "/></g></g></g><g fill="#3e4044" fill-opacity="1"><g transform="translate(31.202184, 36.721047)"><g><path d="M 0.421875 0 C 0.359375 0 0.3125 -0.015625 0.28125 -0.046875 C 0.25 -0.078125 0.234375 -0.125 0.234375 -0.1875 L 0.234375 -1.984375 C 0.234375 -2.046875 0.25 -2.09375 0.28125 -2.125 C 0.3125 -2.15625 0.359375 -2.171875 0.421875 -2.171875 L 1.03125 -2.171875 C 1.382812 -2.171875 1.660156 -2.070312 1.859375 -1.875 C 2.054688 -1.6875 2.15625 -1.425781 2.15625 -1.09375 C 2.15625 -0.738281 2.054688 -0.46875 1.859375 -0.28125 C 1.660156 -0.09375 1.382812 0 1.03125 0 Z M 1.015625 -0.328125 C 1.503906 -0.328125 1.75 -0.582031 1.75 -1.09375 C 1.75 -1.59375 1.503906 -1.84375 1.015625 -1.84375 L 0.625 -1.84375 L 0.625 -0.328125 Z M 1.015625 -0.328125 "/></g></g></g><g fill="#3e4044" fill-opacity="1"><g transform="translate(34.438513, 36.721047)"><g><path d="M 0.421875 0 C 0.359375 0 0.3125 -0.015625 0.28125 -0.046875 C 0.25 -0.078125 0.234375 -0.125 0.234375 -0.1875 L 0.234375 -1.984375 C 0.234375 -2.046875 0.25 -2.09375 0.28125 -2.125 C 0.3125 -2.15625 0.359375 -2.171875 0.421875 -2.171875 L 1.53125 -2.171875 C 1.59375 -2.171875 1.640625 -2.15625 1.671875 -2.125 C 1.703125 -2.101562 1.71875 -2.066406 1.71875 -2.015625 C 1.71875 -1.960938 1.703125 -1.921875 1.671875 -1.890625 C 1.640625 -1.867188 1.59375 -1.859375 1.53125 -1.859375 L 0.625 -1.859375 L 0.625 -1.265625 L 1.46875 -1.265625 C 1.53125 -1.265625 1.578125 -1.25 1.609375 -1.21875 C 1.640625 -1.1875 1.65625 -1.148438 1.65625 -1.109375 C 1.65625 -1.054688 1.640625 -1.015625 1.609375 -0.984375 C 1.578125 -0.960938 1.53125 -0.953125 1.46875 -0.953125 L 0.625 -0.953125 L 0.625 -0.3125 L 1.53125 -0.3125 C 1.59375 -0.3125 1.640625 -0.296875 1.671875 -0.265625 C 1.703125 -0.242188 1.71875 -0.207031 1.71875 -0.15625 C 1.71875 -0.101562 1.703125 -0.0625 1.671875 -0.03125 C 1.640625 -0.0078125 1.59375 0 1.53125 0 Z M 0.421875 0 "/></g></g></g><g fill="#3e4044" fill-opacity="1"><g transform="translate(37.168206, 36.721047)"><g><path d="M 0.984375 0.03125 C 0.828125 0.03125 0.675781 0.0078125 0.53125 -0.03125 C 0.394531 -0.0703125 0.28125 -0.128906 0.1875 -0.203125 C 0.144531 -0.242188 0.125 -0.296875 0.125 -0.359375 C 0.125 -0.398438 0.132812 -0.4375 0.15625 -0.46875 C 0.1875 -0.5 0.21875 -0.515625 0.25 -0.515625 C 0.289062 -0.515625 0.332031 -0.5 0.375 -0.46875 C 0.46875 -0.40625 0.5625 -0.359375 0.65625 -0.328125 C 0.75 -0.304688 0.851562 -0.296875 0.96875 -0.296875 C 1.125 -0.296875 1.238281 -0.320312 1.3125 -0.375 C 1.394531 -0.425781 1.4375 -0.5 1.4375 -0.59375 C 1.4375 -0.675781 1.398438 -0.738281 1.328125 -0.78125 C 1.253906 -0.820312 1.128906 -0.863281 0.953125 -0.90625 C 0.773438 -0.9375 0.628906 -0.976562 0.515625 -1.03125 C 0.398438 -1.082031 0.3125 -1.144531 0.25 -1.21875 C 0.195312 -1.300781 0.171875 -1.40625 0.171875 -1.53125 C 0.171875 -1.664062 0.207031 -1.78125 0.28125 -1.875 C 0.351562 -1.976562 0.453125 -2.054688 0.578125 -2.109375 C 0.703125 -2.171875 0.847656 -2.203125 1.015625 -2.203125 C 1.304688 -2.203125 1.546875 -2.125 1.734375 -1.96875 C 1.753906 -1.945312 1.769531 -1.921875 1.78125 -1.890625 C 1.789062 -1.867188 1.796875 -1.84375 1.796875 -1.8125 C 1.796875 -1.769531 1.785156 -1.734375 1.765625 -1.703125 C 1.742188 -1.671875 1.710938 -1.65625 1.671875 -1.65625 C 1.648438 -1.65625 1.628906 -1.65625 1.609375 -1.65625 C 1.597656 -1.664062 1.578125 -1.679688 1.546875 -1.703125 C 1.460938 -1.765625 1.378906 -1.804688 1.296875 -1.828125 C 1.222656 -1.859375 1.128906 -1.875 1.015625 -1.875 C 0.867188 -1.875 0.753906 -1.847656 0.671875 -1.796875 C 0.597656 -1.742188 0.5625 -1.664062 0.5625 -1.5625 C 0.5625 -1.476562 0.597656 -1.410156 0.671875 -1.359375 C 0.742188 -1.316406 0.863281 -1.273438 1.03125 -1.234375 C 1.21875 -1.191406 1.367188 -1.144531 1.484375 -1.09375 C 1.597656 -1.050781 1.679688 -0.988281 1.734375 -0.90625 C 1.796875 -0.832031 1.828125 -0.738281 1.828125 -0.625 C 1.828125 -0.488281 1.789062 -0.375 1.71875 -0.28125 C 1.65625 -0.1875 1.554688 -0.109375 1.421875 -0.046875 C 1.296875 0.00390625 1.148438 0.03125 0.984375 0.03125 Z M 0.984375 0.03125 "/></g></g></g><g fill="#3e4044" fill-opacity="1"><g transform="translate(40.048355, 36.721047)"><g><path d="M 0.4375 0.015625 C 0.375 0.015625 0.320312 0 0.28125 -0.03125 C 0.25 -0.0703125 0.234375 -0.125 0.234375 -0.1875 L 0.234375 -1.984375 C 0.234375 -2.046875 0.25 -2.09375 0.28125 -2.125 C 0.320312 -2.164062 0.375 -2.1875 0.4375 -2.1875 C 0.488281 -2.1875 0.53125 -2.164062 0.5625 -2.125 C 0.601562 -2.09375 0.625 -2.046875 0.625 -1.984375 L 0.625 -0.1875 C 0.625 -0.125 0.601562 -0.0703125 0.5625 -0.03125 C 0.53125 0 0.488281 0.015625 0.4375 0.015625 Z M 0.4375 0.015625 "/></g></g></g><g fill="#3e4044" fill-opacity="1"><g transform="translate(41.832327, 36.721047)"><g><path d="M 1.890625 -1.171875 C 1.929688 -1.171875 1.96875 -1.15625 2 -1.125 C 2.03125 -1.101562 2.046875 -1.066406 2.046875 -1.015625 L 2.046875 -0.359375 C 2.046875 -0.265625 2.03125 -0.195312 2 -0.15625 C 1.976562 -0.125 1.929688 -0.09375 1.859375 -0.0625 C 1.773438 -0.03125 1.675781 -0.0078125 1.5625 0 C 1.457031 0.0195312 1.351562 0.03125 1.25 0.03125 C 1.03125 0.03125 0.835938 -0.0078125 0.671875 -0.09375 C 0.503906 -0.1875 0.378906 -0.316406 0.296875 -0.484375 C 0.210938 -0.648438 0.171875 -0.851562 0.171875 -1.09375 C 0.171875 -1.3125 0.210938 -1.503906 0.296875 -1.671875 C 0.378906 -1.847656 0.5 -1.976562 0.65625 -2.0625 C 0.820312 -2.15625 1.015625 -2.203125 1.234375 -2.203125 C 1.523438 -2.203125 1.765625 -2.125 1.953125 -1.96875 C 1.972656 -1.945312 1.988281 -1.921875 2 -1.890625 C 2.007812 -1.867188 2.015625 -1.84375 2.015625 -1.8125 C 2.015625 -1.769531 2 -1.734375 1.96875 -1.703125 C 1.945312 -1.671875 1.921875 -1.65625 1.890625 -1.65625 C 1.867188 -1.65625 1.847656 -1.65625 1.828125 -1.65625 C 1.804688 -1.664062 1.785156 -1.679688 1.765625 -1.703125 C 1.671875 -1.765625 1.582031 -1.804688 1.5 -1.828125 C 1.425781 -1.859375 1.34375 -1.875 1.25 -1.875 C 1.019531 -1.875 0.847656 -1.804688 0.734375 -1.671875 C 0.617188 -1.546875 0.5625 -1.351562 0.5625 -1.09375 C 0.5625 -0.550781 0.796875 -0.28125 1.265625 -0.28125 C 1.410156 -0.28125 1.550781 -0.300781 1.6875 -0.34375 L 1.6875 -0.890625 L 1.34375 -0.890625 C 1.289062 -0.890625 1.25 -0.898438 1.21875 -0.921875 C 1.195312 -0.953125 1.1875 -0.988281 1.1875 -1.03125 C 1.1875 -1.070312 1.195312 -1.101562 1.21875 -1.125 C 1.25 -1.15625 1.289062 -1.171875 1.34375 -1.171875 Z M 1.890625 -1.171875 "/></g></g></g><g fill="#3e4044" fill-opacity="1"><g transform="translate(45.004175, 36.721047)"><g><path d="M 1.875 -2.1875 C 1.9375 -2.1875 1.984375 -2.164062 2.015625 -2.125 C 2.046875 -2.09375 2.0625 -2.046875 2.0625 -1.984375 L 2.0625 -0.1875 C 2.0625 -0.125 2.039062 -0.0703125 2 -0.03125 C 1.96875 0 1.925781 0.015625 1.875 0.015625 C 1.8125 0.015625 1.765625 -0.00390625 1.734375 -0.046875 L 0.609375 -1.515625 L 0.609375 -0.1875 C 0.609375 -0.125 0.585938 -0.0703125 0.546875 -0.03125 C 0.515625 0 0.472656 0.015625 0.421875 0.015625 C 0.359375 0.015625 0.3125 0 0.28125 -0.03125 C 0.25 -0.0703125 0.234375 -0.125 0.234375 -0.1875 L 0.234375 -1.984375 C 0.234375 -2.046875 0.25 -2.09375 0.28125 -2.125 C 0.320312 -2.164062 0.367188 -2.1875 0.421875 -2.1875 C 0.484375 -2.1875 0.535156 -2.160156 0.578125 -2.109375 L 1.6875 -0.65625 L 1.6875 -1.984375 C 1.6875 -2.046875 1.703125 -2.09375 1.734375 -2.125 C 1.773438 -2.164062 1.820312 -2.1875 1.875 -2.1875 Z M 1.875 -2.1875 "/></g></g></g></svg>